<svg xmlns="http://www.w3.org/2000/svg" xmlns:xlink="http://www.w3.org/1999/xlink" version="1.1" width="612" height="127" enable-background="new 0 0 611.2 187.655" xml:space="preserve" style=""><rect id="backgroundrect" width="100%" height="100%" x="0" y="0" fill="none" stroke="none" class="" style=""/>















<g class="currentLayer" style=""><title>Layer 1</title><rect x="586.551025390625" y="70.09600067138672" fill="#FF0000" width="25.459999084472656" height="25.459999084472656" id="svg_1" class=""/><polygon fill="#FF0000" points="81.09700012207031,0 62.70899963378906,61.45199966430664 42.90599822998047,0 0,0 0,95.55599975585938 25.461000442504883,95.55599975585938 25.461000442504883,22.788999557495117 50.763999938964844,95.55599975585938 74.65299987792969,95.55599975585938 99.48500061035156,22.788999557495117 99.64299774169922,95.55599975585938 124.78900146484375,95.55599975585938 124.78900146484375,0 " id="svg_2" class=""/><path fill="#231F20" d="M214.572,55.636 c0,0 -0.31400000000000006,-35.205 -38.191,-35.205 c-38.349,0 -38.191,37.719 -38.191,37.719 s-0.9430000000000001,39.134 43.535,39.134 c16.974,0 25.932,-5.029 25.932,-5.029 V74.653 c0,0 -5.029,5.501 -24.36,5.501 c-19.332,0 -19.332,-14.145 -19.332,-14.145 h50.607 V55.636 L214.572,55.636 zM191.783,51.708 h-27.975 c0,0 0.15700000000000003,-15.088 14.459,-15.088 C192.412,36.62 191.783,51.708 191.783,51.708 z" id="svg_3" class=""/><path fill="#231F20" d="M494.1,55.636 c0,0 -0.31400000000000006,-35.205 -38.19,-35.205 c-38.349,0 -38.191,37.719 -38.191,37.719 s-0.9430000000000001,39.134 43.534,39.134 c16.975,0 25.933,-5.029 25.933,-5.029 V74.653 c0,0 -5.029,5.501 -24.36,5.501 s-19.331,-14.145 -19.331,-14.145 H494.1 V55.636 L494.1,55.636 zM471.311,51.708 h-27.975 c0,0 0.15700000000000003,-15.088 14.459,-15.088 C471.939,36.62 471.311,51.708 471.311,51.708 z" id="svg_4" class=""/><path fill="#231F20" d="M253.893,57.837 c0,-10.059 5.187,-18.074 15.088,-18.074 c8.958,0 15.245,8.173 15.245,18.074 c0,10.059 -7.072,18.074 -15.245,18.074 C258.608,75.911 253.893,67.896 253.893,57.837 M237.862,102 l-1.1,20.273 c0,0 11.788,4.559 30.49,4.559 c36.305,0 41.488,-20.746 41.488,-37.249 V22.16 h-22.942 v13.516 c0,0 -6.287,-15.087 -25.775,-15.087 c-19.489,0 -32.533,13.831 -32.533,36.776 c0,19.803 9.43,38.191 32.533,38.191 c17.759,0 24.832,-12.573 24.832,-12.573 s4.715,25.304 -21.689,25.304 C248.55,108.444 237.862,102 237.862,102 " id="svg_5" class=""/><path fill="#231F20" d="M349.404,57.837 c0,-10.059 5.187,-18.074 15.088,-18.074 c8.958,0 15.245,8.173 15.245,18.074 c0,10.059 -7.073,18.074 -15.245,18.074 C354.276,75.911 349.404,67.896 349.404,57.837 M333.53,102 l-1.1,20.273 c0,0 11.787,4.559 30.489,4.559 c36.306,0 41.492,-20.746 41.492,-37.249 V22.16 h-22.946 v13.516 c0,0 -6.287,-15.087 -25.775,-15.087 s-32.533,13.831 -32.533,36.776 c0,19.803 9.431000000000001,38.191 32.533,38.191 c17.76,0 24.832,-12.573 24.832,-12.573 s4.715,25.304 -21.688,25.304 C344.061,108.444 333.53,102 333.53,102 " id="svg_6" class=""/><path fill="#231F20" d="M533.181,95.556 h-25.146 V22.003 h23.261 v13.83 c0,0 5.658,-15.559 26.561,-15.559 c21.061,0 26.247,16.345 26.247,31.433 h-26.247 c0,0 0.15700000000000003,-10.059 -11.158,-10.059 c-10.688,0 -13.202,14.459 -13.202,21.217 C533.338,69.624 533.181,95.556 533.181,95.556 " id="svg_7" class=""/><path fill="#FFFFFF" d="M593.408,89.741 h3.301 v-5.815 h3.3 c1.572,0 2.2,0.6280000000000001 2.515,2.2 c0.15700000000000003,1.2570000000000001 0.15700000000000003,2.672 0.47200000000000003,3.615 h3.301 c-0.6290000000000001,-0.786 -0.6290000000000001,-2.515 -0.6290000000000001,-3.458 c-0.15700000000000003,-1.572 -0.6290000000000001,-2.9859999999999998 -2.2,-3.458 l0,0 c1.5710000000000002,-0.6290000000000001 2.357,-2.043 2.357,-3.7720000000000002 c0,-2.201 -1.729,-4.086 -4.4,-4.086 h-8.016 V89.741 L593.408,89.741 zM596.709,77.325 h3.614 c1.415,0 2.2,0.6280000000000001 2.2,2.043 c0,1.572 -0.785,2.201 -2.2,2.201 h-3.614 V77.325 z" id="svg_8" class=""/></g></svg>